<svg width="798" height="233" viewBox="0 0 798 233" fill="none" xmlns="http://www.w3.org/2000/svg">
<path d="M209.094 227.2C209.694 227.2 209.994 227.5 209.994 228.1C209.994 228.7 209.694 229 209.094 229H154.194C153.594 229 153.294 228.7 153.294 228.1C153.294 227.5 153.594 227.2 154.194 227.2C158.994 227.2 162.694 226.5 165.294 225.1C167.894 223.7 168.894 221.4 168.294 218.2L143.694 156.4H51.8938L28.4938 217.3C27.4938 220.7 28.1938 223.2 30.5938 224.8C33.1938 226.4 36.8938 227.2 41.6938 227.2C42.2938 227.2 42.5938 227.5 42.5938 228.1C42.5938 228.7 42.2938 229 41.6938 229H1.49375C0.89375 229 0.59375 228.7 0.59375 228.1C0.59375 227.5 0.89375 227.2 1.49375 227.2C13.6938 227.2 21.4938 223.9 24.8938 217.3L95.9938 32.8C93.3938 24.8 88.6938 20.8 81.8938 20.8C81.2938 20.8 80.9938 20.5 80.9938 19.9C80.9938 19.3 81.2938 19 81.8938 19H107.694L185.394 216.1C188.994 223.5 196.894 227.2 209.094 227.2ZM97.4938 38.8L52.7938 154.6H143.094L97.4938 38.8ZM316.138 78.1C326.538 78.9 335.938 81.4 344.338 85.6C352.738 89.8 359.338 94.7 364.138 100.3C369.138 105.9 373.338 112.1 376.738 118.9C380.138 125.7 382.438 131.9 383.638 137.5C384.838 142.9 385.438 147.8 385.438 152.2C385.438 173 380.238 190.8 369.838 205.6C359.438 220.2 344.138 228.9 323.938 231.7C308.938 233.5 296.238 232.1 285.838 227.5C275.438 222.7 267.938 217.1 263.338 210.7V216.4L265.138 229H231.838C231.238 229 230.938 228.7 230.938 228.1C230.938 227.5 231.238 227.2 231.838 227.2C236.438 227.2 240.038 226 242.638 223.6C245.438 221.2 246.838 218.1 246.838 214.3V31.9C246.838 28.5 245.638 26 243.238 24.4C240.838 22.6 238.538 21.7 236.338 21.7C235.538 21.7 235.038 21.5 234.838 21.1C234.838 20.5 235.438 20.1 236.638 19.9C243.638 19.1 252.538 12.5 263.338 0.0999966V92.8C279.138 81.8 296.738 76.9 316.138 78.1ZM317.938 229C334.738 225 347.338 215.9 355.738 201.7C364.138 187.3 368.338 171.2 368.338 153.4C368.338 148 367.538 142.2 365.938 136C364.538 129.8 362.038 122.9 358.438 115.3C354.838 107.7 349.038 101 341.038 95.2C333.238 89.4 323.838 85.6 312.838 83.8C297.438 81.4 280.938 85.4 263.338 95.8V189.7C264.738 200.3 271.138 210.2 282.538 219.4C293.938 228.6 305.738 231.8 317.938 229ZM534.826 210.4C520.626 225.4 502.826 232.9 481.426 232.9C460.026 232.9 442.126 225.4 427.726 210.4C413.526 195.4 406.426 176.7 406.426 154.3C406.426 131.9 413.526 113.3 427.726 98.5C442.126 83.7 460.026 76.3 481.426 76.3C502.826 76.3 520.626 83.7 534.826 98.5C549.226 113.3 556.426 131.9 556.426 154.3C556.426 176.7 549.226 195.4 534.826 210.4ZM514.426 221.5C529.626 214.5 539.326 202.3 543.526 184.9C547.926 167.5 545.726 149.3 536.926 130.3C527.326 110.5 514.126 96.5 497.326 88.3C480.526 80.1 464.226 79.7 448.426 87.1C433.226 94.1 423.426 106.4 419.026 124C414.826 141.4 417.126 159.7 425.926 178.9C435.126 198.9 448.126 213 464.926 221.2C481.726 229.2 498.226 229.3 514.426 221.5ZM727.367 224.5L728.267 224.8L728.567 225.7L727.967 226.6C706.567 234.6 695.067 227.3 693.467 204.7C686.867 211.3 679.167 216.8 670.367 221.2C661.767 225.6 653.367 228.1 645.167 228.7C623.967 230.1 608.267 225.7 598.067 215.5C588.067 205.3 583.067 193.4 583.067 179.8V110.8C583.067 107.4 581.867 104.9 579.467 103.3C577.067 101.5 574.767 100.6 572.567 100.6C571.767 100.6 571.267 100.4 571.067 100C571.067 99.4 571.667 99 572.867 98.8C579.867 98 588.767 91.4 599.567 79V176.2C599.567 181.2 600.067 186.3 601.067 191.5C602.267 196.5 604.267 202 607.067 208C610.067 213.8 614.767 218.5 621.167 222.1C627.767 225.5 635.767 226.9 645.167 226.3C654.767 225.7 665.167 220.6 676.367 211C687.567 201.4 693.167 192.2 693.167 183.4V110.8C693.167 107.4 691.967 104.9 689.567 103.3C687.167 101.5 684.867 100.6 682.667 100.6C681.867 100.6 681.367 100.4 681.167 100C681.167 99.4 681.767 99 682.967 98.8C689.967 98 698.867 91.4 709.667 79V184.6C709.667 200.2 710.767 210.8 712.967 216.4C715.367 221.8 720.167 224.5 727.367 224.5ZM825.84 225.4H826.74L827.04 226.3L826.44 227.2C815.24 232.6 805.14 232.5 796.14 226.9C787.14 221.1 782.64 211.5 782.64 198.1V91.3C782.64 87.9 781.44 85.3 779.04 83.5C776.64 81.7 774.34 80.8 772.14 80.8H740.34V79H772.44C776.24 78.6 780.24 75.9 784.44 70.9C788.64 65.9 793.54 59.1 799.14 50.5V79H819.84V80.8H799.14V193C799.14 203.4 801.14 211.6 805.14 217.6C809.14 223.6 816.04 226.2 825.84 225.4Z" fill="black"/>
</svg>
