<svg width="1113" height="220" viewBox="0 0 1113 220" fill="none" xmlns="http://www.w3.org/2000/svg">
<path d="M7.05938 219.4C-22.7406 217.2 -46.8406 205.6 -65.2406 184.6C-83.6406 163.6 -92.4406 137.1 -91.6406 105.1C-90.6406 75.5 -80.8406 50.9 -62.2406 31.3C-43.6406 11.5 -20.7406 1.2 6.45938 0.399996C30.6594 -0.400005 53.5594 7.59999 75.1594 24.4C82.3594 30.4 85.8594 36.3 85.6594 42.1C85.6594 47.9 82.4594 52.4 76.0594 55.6C72.2594 57.8 69.8594 57 68.8594 53.2C64.6594 36 57.7594 23.4 48.1594 15.4C38.7594 7.19999 25.4594 3.1 8.25938 3.1C-13.7406 3.1 -32.5406 13.2 -48.1406 33.4C-63.7406 53.4 -71.5406 79.5 -71.5406 111.7C-71.5406 139.9 -64.3406 163 -49.9406 181C-35.5406 198.8 -16.0406 209.4 8.55938 212.8C23.1594 214.8 37.3594 212.6 51.1594 206.2C64.9594 199.6 76.0594 189.8 84.4594 176.8C86.8594 173.4 88.5594 171.8 89.5594 172C91.1594 172.6 90.7594 174.5 88.3594 177.7C78.9594 191.9 67.0594 202.7 52.6594 210.1C38.4594 217.5 23.2594 220.6 7.05938 219.4ZM246.455 195.4C232.255 210.4 214.455 217.9 193.055 217.9C171.655 217.9 153.755 210.4 139.355 195.4C125.155 180.4 118.055 161.7 118.055 139.3C118.055 116.9 125.155 98.3 139.355 83.5C153.755 68.7 171.655 61.3 193.055 61.3C214.455 61.3 232.255 68.7 246.455 83.5C260.855 98.3 268.055 116.9 268.055 139.3C268.055 161.7 260.855 180.4 246.455 195.4ZM226.055 206.5C241.255 199.5 250.955 187.3 255.155 169.9C259.555 152.5 257.355 134.3 248.555 115.3C238.955 95.5 225.755 81.5 208.955 73.3C192.155 65.1 175.855 64.7 160.055 72.1C144.855 79.1 135.055 91.4 130.655 109C126.455 126.4 128.755 144.7 137.555 163.9C146.755 183.9 159.755 198 176.555 206.2C193.355 214.2 209.855 214.3 226.055 206.5ZM452.278 209.5L453.178 209.8L453.478 210.7L452.878 211.6C429.678 220 418.078 210.5 418.078 183.1V113.5C418.078 108.5 417.478 103.5 416.278 98.5C415.278 93.3 413.278 87.8 410.278 82C407.478 76 402.778 71.3 396.178 67.9C389.778 64.3 381.878 62.8 372.478 63.4C362.878 64 352.478 69.1 341.278 78.7C330.078 88.3 324.478 97.5 324.478 106.3V199.3C324.478 203.1 325.778 206.2 328.378 208.6C331.178 211 334.878 212.2 339.478 212.2C340.078 212.2 340.378 212.5 340.378 213.1C340.378 213.7 340.078 214 339.478 214H292.978C292.378 214 292.078 213.7 292.078 213.1C292.078 212.5 292.378 212.2 292.978 212.2C297.578 212.2 301.178 211 303.778 208.6C306.578 206.2 307.978 203.1 307.978 199.3V83.8C307.978 80.4 306.878 77.8 304.678 76C302.478 74.2 300.078 73.2 297.478 73C296.678 73 296.178 72.8 295.978 72.4C295.978 71.8 296.578 71.4 297.778 71.2C307.778 70.2 316.678 66.8 324.478 61V83.5C330.878 77.1 338.378 71.9 346.978 67.9C355.578 63.9 364.078 61.6 372.478 61C393.678 59.6 409.278 64 419.278 74.2C429.478 84.4 434.578 96.3 434.578 109.9V169.6C434.578 185.2 435.678 195.8 437.878 201.4C440.278 206.8 445.078 209.5 452.278 209.5ZM538.934 210.4H539.834L540.134 211.3L539.534 212.2C528.334 217.6 518.234 217.5 509.234 211.9C500.234 206.1 495.734 196.5 495.734 183.1V76.3C495.734 72.9 494.534 70.3 492.134 68.5C489.734 66.7 487.434 65.8 485.234 65.8H453.434V64H485.534C489.334 63.6 493.334 60.9 497.534 55.9C501.734 50.9 506.634 44.1 512.234 35.5V64H532.934V65.8H512.234V178C512.234 188.4 514.234 196.6 518.234 202.6C522.234 208.6 529.134 211.2 538.934 210.4ZM693.694 209.5L694.594 209.8L694.894 210.7L694.294 211.6C683.094 215.6 674.694 215.7 669.094 211.9C663.494 207.9 660.294 200 659.494 188.2C654.294 197.2 646.394 204.1 635.794 208.9C625.394 213.7 614.894 216.1 604.294 216.1C593.894 216.1 584.294 213.3 575.494 207.7C566.694 202.1 561.194 194.2 558.994 184C556.994 173.8 558.594 163.5 563.794 153.1C568.994 142.7 578.694 134.5 592.894 128.5C611.294 120.7 633.494 116.8 659.494 116.8V102.4C659.494 90.4 655.794 81 648.394 74.2C640.994 67.4 630.694 64 617.494 64C608.094 64 600.494 66.6 594.694 71.8C589.094 77 585.794 84.5 584.794 94.3C584.394 97.1 582.994 98.2 580.594 97.6C575.994 96.6 572.794 94.3 570.994 90.7C569.394 87.1 570.694 83 574.894 78.4C587.294 67.2 601.494 61.6 617.494 61.6C635.894 61.6 650.194 66.2 660.394 75.4C670.794 84.4 675.994 97 675.994 113.2V169.6C675.994 185.2 677.094 195.8 679.294 201.4C681.694 206.8 686.494 209.5 693.694 209.5ZM659.494 183.4V183.1V119.5C645.294 119.5 634.394 120.5 626.794 122.5C619.394 124.3 611.494 127.4 603.094 131.8C580.094 144 569.994 160.1 572.794 180.1C573.994 188.5 578.194 195.2 585.394 200.2C592.594 205 600.694 207.6 609.694 208C618.694 208.2 627.894 206.2 637.294 202C646.694 197.8 654.094 191.6 659.494 183.4ZM782.152 217.9C760.952 217.5 743.452 209.6 729.652 194.2C716.052 178.6 709.452 159.4 709.852 136.6C710.652 115.6 717.652 98 730.852 83.8C744.052 69.4 760.352 61.9 779.752 61.3C800.952 60.7 819.352 66.7 834.952 79.3C838.952 82.5 841.352 85.8 842.152 89.2C842.952 92.6 842.652 95.5 841.252 97.9C840.052 100.1 838.152 102 835.552 103.6C832.752 105 831.052 104.4 830.452 101.8C824.252 76.4 807.752 63.7 780.952 63.7C765.752 63.7 753.152 70.8 743.152 85C733.352 99.2 728.452 118 728.452 141.4C728.452 168.4 736.852 188.8 753.652 202.6C770.652 216.2 791.252 217.8 815.452 207.4C823.052 204.2 831.052 196.2 839.452 183.4C839.852 182.8 840.352 182 840.952 181C842.352 178.4 843.652 177.3 844.852 177.7C846.852 178.5 846.652 180.6 844.252 184C829.052 207.4 808.352 218.7 782.152 217.9ZM946.746 210.4H947.646L947.946 211.3L947.346 212.2C936.146 217.6 926.046 217.5 917.046 211.9C908.046 206.1 903.546 196.5 903.546 183.1V76.3C903.546 72.9 902.346 70.3 899.946 68.5C897.546 66.7 895.246 65.8 893.046 65.8H861.246V64H893.346C897.146 63.6 901.146 60.9 905.346 55.9C909.546 50.9 914.446 44.1 920.046 35.5V64H940.746V65.8H920.046V178C920.046 188.4 922.046 196.6 926.046 202.6C930.046 208.6 936.946 211.2 946.746 210.4ZM1091.38 195.4C1077.18 210.4 1059.38 217.9 1037.98 217.9C1016.58 217.9 998.677 210.4 984.277 195.4C970.077 180.4 962.977 161.7 962.977 139.3C962.977 116.9 970.077 98.3 984.277 83.5C998.677 68.7 1016.58 61.3 1037.98 61.3C1059.38 61.3 1077.18 68.7 1091.38 83.5C1105.78 98.3 1112.98 116.9 1112.98 139.3C1112.98 161.7 1105.78 180.4 1091.38 195.4ZM1070.98 206.5C1086.18 199.5 1095.88 187.3 1100.08 169.9C1104.48 152.5 1102.28 134.3 1093.48 115.3C1083.88 95.5 1070.68 81.5 1053.88 73.3C1037.08 65.1 1020.78 64.7 1004.98 72.1C989.777 79.1 979.977 91.4 975.577 109C971.377 126.4 973.677 144.7 982.477 163.9C991.677 183.9 1004.68 198 1021.48 206.2C1038.28 214.2 1054.78 214.3 1070.98 206.5Z" fill="black"/>
</svg>
