<svg width="90" height="62" viewBox="0 0 90 62" fill="none" xmlns="http://www.w3.org/2000/svg">
<path d="M36.6193 0C36.7937 0 36.881 0.086693 36.881 0.260079C36.881 0.433465 36.7937 0.520158 36.6193 0.520158C35.2673 0.520158 34.1916 0.866931 33.392 1.57492C32.5925 2.28292 32.2 3.17875 32.2 4.29131V44.0979C32.2 50.123 30.6881 54.6022 27.6498 57.5642C24.6261 60.5118 20.9918 61.9855 16.7614 61.9855C13.287 61.9855 10.0016 61.0319 6.87611 59.1391C3.76514 57.2463 1.58456 54.7756 0.348894 51.7269C-0.232596 50.2097 -0.0872234 48.866 0.785011 47.6956C1.67178 46.5253 2.79115 45.8028 4.14311 45.5139C4.49201 45.3983 4.78275 45.4272 5.02988 45.6006C5.26248 45.7739 5.3497 46.0629 5.29155 46.4819C5.05896 50.8599 6.04749 54.4721 8.24261 57.3041C10.4523 60.1361 13.287 61.4943 16.7614 61.3787C19.8143 61.2631 22.3437 59.9772 24.3499 57.5208C26.356 55.0645 27.3445 51.6402 27.3445 47.2622V4.29131C27.3445 3.17875 26.952 2.26847 26.1525 1.57492C25.3529 0.866931 24.2917 0.520158 22.9252 0.520158C22.7508 0.520158 22.6636 0.433465 22.6636 0.260079C22.6636 0.086693 22.7508 0 22.9252 0H36.6193V0Z" fill="black"/>
<path d="M89.4767 57.1741C89.4767 57.0007 89.5639 56.914 89.7383 56.914C89.9128 56.914 90 57.0007 90 57.1741V61.3787H49.2522C49.0777 61.3787 48.9905 61.292 48.9905 61.1186C48.9905 60.9452 49.0777 60.8585 49.2522 60.8585C50.4878 60.8585 51.4764 60.2372 52.2032 58.9802C52.9446 57.7231 53.308 56.3649 53.308 54.9056V4.29131C53.308 3.17875 52.9155 2.26847 52.116 1.57492C51.3164 0.866931 50.2552 0.520158 48.8887 0.520158C48.7143 0.520158 48.6271 0.433465 48.6271 0.260079C48.6271 0.0866931 48.7143 0 48.8887 0H62.5683C62.7427 0 62.8299 0.0866931 62.8299 0.260079C62.8299 0.433465 62.7427 0.520158 62.5683 0.520158C61.2163 0.520158 60.1405 0.866931 59.341 1.57492C58.5414 2.28292 58.1489 3.17875 58.1489 4.29131V60.8441H83.4728C84.9992 60.8441 86.3802 60.5407 87.6159 59.9194C88.8516 59.3125 89.4767 58.4022 89.4767 57.1741Z" fill="black"/>
</svg>
