<svg width="31" height="31" viewBox="0 0 31 31" fill="none" xmlns="http://www.w3.org/2000/svg">
<path d="M21.995 0H9.00502C4.03963 0 0 4.03963 0 9.00502V21.995C0 26.9604 4.03963 31 9.00502 31H21.995C26.9604 31 31 26.9604 31 21.995V9.00502C31 4.03963 26.9604 0 21.995 0ZM28.5781 21.995C28.5781 25.625 25.625 28.5781 21.995 28.5781H9.00502C5.37505 28.5781 2.42188 25.625 2.42188 21.995V9.00502C2.42188 5.37505 5.37505 2.42188 9.00502 2.42188H21.995C25.625 2.42188 28.5781 5.37505 28.5781 9.00502V21.995Z" fill="black"/>
<path d="M15.5 7.14453C10.8927 7.14453 7.14453 10.8927 7.14453 15.5C7.14453 20.1073 10.8927 23.8555 15.5 23.8555C20.1073 23.8555 23.8555 20.1073 23.8555 15.5C23.8555 10.8927 20.1073 7.14453 15.5 7.14453ZM15.5 21.4336C12.2282 21.4336 9.56641 18.7718 9.56641 15.5C9.56641 12.2282 12.2282 9.56641 15.5 9.56641C18.7718 9.56641 21.4336 12.2282 21.4336 15.5C21.4336 18.7718 18.7718 21.4336 15.5 21.4336Z" fill="black"/>
<path d="M23.9766 8.23438C24.6453 8.23438 25.1875 7.69222 25.1875 7.02344C25.1875 6.35466 24.6453 5.8125 23.9766 5.8125C23.3078 5.8125 22.7656 6.35466 22.7656 7.02344C22.7656 7.69222 23.3078 8.23438 23.9766 8.23438Z" fill="black"/>
</svg>
