<svg width="208" height="58" viewBox="0 0 208 58" fill="none" xmlns="http://www.w3.org/2000/svg">
<path d="M17.7277 8.37031C17.7452 8.36777 17.7629 8.36939 17.7796 8.37505C17.7963 8.3807 17.8114 8.39023 17.8238 8.40287C17.8361 8.4155 17.8453 8.43088 17.8506 8.44775C17.8559 8.46463 17.8572 8.48252 17.8543 8.49999C17.8568 8.51727 17.8552 8.53488 17.8497 8.55143C17.8442 8.56798 17.8349 8.58303 17.8226 8.59537C17.8104 8.60771 17.7954 8.61701 17.7789 8.62254C17.7625 8.62806 17.7449 8.62967 17.7277 8.62722C17.1614 8.5959 16.6041 8.78024 16.167 9.14348C15.9774 9.30787 15.8266 9.5126 15.7256 9.74282C15.6245 9.97304 15.5757 10.223 15.5827 10.4745V29.9603C15.5827 32.9095 14.8522 35.1058 13.3914 36.5494C12.7027 37.2494 11.8803 37.8023 10.9736 38.1748C10.0669 38.5473 9.09459 38.7318 8.11514 38.7172C6.42161 38.7135 4.76341 38.2301 3.33076 37.3226C1.90839 36.4956 0.796168 35.2214 0.165526 33.6965C0.0208957 33.3785 -0.0355453 33.0272 0.00217033 32.6796C0.0398859 32.3321 0.170357 32.0012 0.379788 31.722C0.769463 31.1736 1.34843 30.7906 2.0038 30.6479C2.07274 30.6184 2.14798 30.607 2.22249 30.6147C2.297 30.6224 2.36836 30.649 2.42989 30.6919C2.48928 30.7439 2.5329 30.8116 2.55572 30.8874C2.57855 30.9631 2.57966 31.0438 2.55893 31.1201C2.44531 33.2667 2.92172 35.0341 3.98816 36.4222C5.0546 37.8103 6.43026 38.4742 8.11514 38.4138C8.82892 38.394 9.52925 38.2141 10.1649 37.8873C10.8006 37.5605 11.3556 37.095 11.7893 36.525C12.7632 35.3212 13.2501 33.6468 13.2501 31.5018V10.4598C13.2542 10.2104 13.2035 9.96312 13.1016 9.73561C12.9998 9.50809 12.8493 9.30593 12.6609 9.14348C12.2236 8.78067 11.6665 8.59639 11.1002 8.62722C11.083 8.62967 11.0655 8.62806 11.049 8.62254C11.0325 8.61701 11.0176 8.60771 11.0053 8.59537C10.993 8.58303 10.9838 8.56798 10.9783 8.55143C10.9728 8.53488 10.9712 8.51727 10.9736 8.49999C10.9707 8.48252 10.972 8.46463 10.9773 8.44775C10.9826 8.43088 10.9918 8.4155 11.0042 8.40287C11.0165 8.39023 11.0316 8.3807 11.0483 8.37505C11.065 8.36939 11.0828 8.36777 11.1002 8.37031H17.7277Z" fill="#1F140F"/>
<path d="M46.9916 34.4036C44.1428 37.3658 40.5718 38.8469 36.2784 38.8469C31.9851 38.8469 28.414 37.3658 25.5653 34.4036C22.702 31.4431 21.2712 27.7444 21.2728 23.3077C21.2744 18.8709 22.698 15.1869 25.5434 12.2557C28.3889 9.31964 31.9599 7.85159 36.2565 7.85159C40.5531 7.85159 44.1242 9.31964 46.9696 12.2557C49.8151 15.1918 51.2387 18.8758 51.2403 23.3077C51.2419 27.7395 49.8257 31.4382 46.9916 34.4036ZM43.0959 36.7427C46.1443 35.3709 48.131 32.8671 49.0563 29.2312C49.9815 25.5954 49.5619 21.8869 47.7975 18.1059C45.8886 14.2482 43.1405 11.5323 39.5532 9.95824C35.966 8.38417 32.5776 8.34176 29.388 9.83101C26.3396 11.2322 24.3674 13.7605 23.4714 17.4159C22.5754 21.0713 22.9958 24.7985 24.7326 28.5975C26.5539 32.4829 29.2662 35.2053 32.8697 36.7647C36.4732 38.3241 39.8819 38.3168 43.0959 36.7427Z" fill="#1F140F"/>
<path d="M64.1155 38.7613C62.0955 38.7061 60.1153 38.1845 58.328 37.237C56.6739 36.3699 55.2816 35.0729 54.296 33.4812C53.783 32.4797 53.7473 31.6429 54.1888 30.9708C54.4181 30.631 54.7183 30.3455 55.0686 30.1342C55.4189 29.9229 55.8108 29.791 56.217 29.7475C56.7576 29.6031 57.0302 29.8038 57.0302 30.3469C56.8306 32.8083 57.3573 34.7543 58.6104 36.1849C59.8635 37.6154 61.7148 38.3739 64.1642 38.4603C67.3522 38.5745 69.8787 37.7589 71.7438 36.0136C73.6088 34.2682 74.1006 32.2505 73.2192 29.9603C72.8492 28.9294 71.945 27.9638 70.5069 27.0634C68.9833 26.1204 67.3828 25.3092 65.7225 24.6387C63.9694 23.9242 62.2464 23.1584 60.5534 22.3412C58.9632 21.605 57.5322 20.5626 56.3412 19.273C55.8102 18.7145 55.3966 18.0543 55.1251 17.3316C54.8536 16.609 54.7298 15.8388 54.761 15.067C54.847 12.8927 55.8932 11.1473 57.8995 9.831C59.9058 8.51465 62.3625 7.95598 65.2696 8.15498C68.1186 8.31495 70.8225 9.46935 72.9149 11.4189C73.7963 12.2492 74.138 13.0428 73.9399 13.7996C73.7419 14.5565 73.1998 15.0214 72.3135 15.1943C71.8574 15.3084 71.5871 15.1086 71.5027 14.5948C71.3582 12.7353 70.7317 11.2672 69.623 10.1907C68.5144 9.11411 67.0624 8.54891 65.2672 8.49508C62.8762 8.37764 60.8423 8.85801 59.1656 9.93621C57.4888 11.0144 56.5758 12.4099 56.4264 14.1226C56.3909 14.813 56.5091 15.5027 56.7723 16.1414C57.0356 16.7801 57.4373 17.3517 57.9482 17.8147C59.1343 18.9184 60.5284 19.772 62.0484 20.3251C63.7138 20.9694 65.4222 21.599 67.1736 22.214C68.9235 22.8276 70.5943 23.649 72.1504 24.6607C73.72 25.6737 74.8149 26.8538 75.4349 28.2011C76.6864 31.0345 76.1597 33.5318 73.8547 35.6931C71.5498 37.8543 68.3034 38.8771 64.1155 38.7613Z" fill="#1F140F"/>
<path d="M101.02 8.3703V10.4305C101.023 10.4479 101.021 10.4658 101.016 10.4827C101.011 10.4996 101.002 10.5149 100.989 10.5276C100.977 10.5402 100.962 10.5497 100.945 10.5554C100.928 10.5611 100.911 10.5627 100.893 10.5601C100.876 10.5626 100.858 10.5609 100.841 10.5552C100.824 10.5496 100.809 10.5401 100.797 10.5275C100.784 10.515 100.775 10.4997 100.769 10.4828C100.763 10.466 100.762 10.4481 100.764 10.4305C100.767 10.1407 100.683 9.85695 100.523 9.61575C100.363 9.37455 100.135 9.18702 99.8681 9.07741C99.2426 8.77205 98.5548 8.61788 97.8594 8.62721H84.7456V20.8193H91.4535C92.1484 20.8293 92.8358 20.6742 93.4598 20.3667C93.7273 20.2584 93.9561 20.0717 94.1164 19.8307C94.2767 19.5898 94.3609 19.3059 94.3582 19.0161C94.3553 18.9986 94.3566 18.9807 94.3619 18.9638C94.3672 18.947 94.3764 18.9316 94.3888 18.919C94.4011 18.9063 94.4162 18.8968 94.4329 18.8911C94.4496 18.8855 94.4674 18.8839 94.4848 18.8864C94.5023 18.884 94.5202 18.8856 94.5369 18.8913C94.5537 18.8969 94.5689 18.9064 94.5814 18.919C94.5939 18.9316 94.6033 18.9469 94.609 18.9637C94.6146 18.9805 94.6163 18.9985 94.6138 19.0161V22.8795C94.6164 22.897 94.6148 22.9149 94.6091 22.9316C94.6035 22.9484 94.594 22.9636 94.5814 22.976C94.5689 22.9884 94.5536 22.9976 94.5368 23.003C94.52 23.0083 94.5022 23.0096 94.4848 23.0067C94.4676 23.0092 94.4501 23.0076 94.4336 23.002C94.4171 22.9965 94.4022 22.9872 94.3899 22.9749C94.3776 22.9625 94.3684 22.9475 94.3629 22.9309C94.3573 22.9144 94.3558 22.8968 94.3582 22.8795C94.3601 22.5902 94.2755 22.3069 94.1153 22.0666C93.9551 21.8262 93.7267 21.6397 93.4598 21.5313C92.8356 21.2245 92.1482 21.0703 91.4535 21.0811H84.7456V38.1692H97.8594C98.5549 38.1797 99.243 38.0254 99.8681 37.719C100.135 37.6098 100.363 37.4227 100.523 37.1819C100.682 36.9411 100.766 36.6577 100.764 36.3684C100.762 36.3508 100.763 36.3328 100.769 36.316C100.775 36.2991 100.784 36.2838 100.797 36.2713C100.809 36.2587 100.824 36.2492 100.841 36.2436C100.858 36.2379 100.876 36.2362 100.893 36.2387C100.911 36.2361 100.928 36.2378 100.945 36.2434C100.962 36.2491 100.977 36.2586 100.989 36.2712C101.002 36.2839 101.011 36.2992 101.016 36.3161C101.021 36.333 101.023 36.3509 101.02 36.3684V38.4138H80.4336C80.3994 38.4138 80.3665 38.4002 80.3423 38.3759C80.3181 38.3515 80.3045 38.3186 80.3045 38.2842C80.3045 38.2498 80.3181 38.2168 80.3423 38.1925C80.3665 38.1681 80.3994 38.1545 80.4336 38.1545C81.0301 38.1545 81.5073 37.8486 81.8628 37.2321C82.2153 36.6266 82.3995 35.937 82.396 35.2355V11.5462C82.4008 10.8422 82.2166 10.1499 81.8628 9.54229C81.5073 8.92734 81.0309 8.61987 80.4336 8.61987C80.4162 8.62275 80.3984 8.62146 80.3816 8.61613C80.3648 8.61079 80.3495 8.60155 80.3369 8.58915C80.3244 8.57676 80.3149 8.56156 80.3092 8.54479C80.3036 8.52802 80.302 8.51015 80.3045 8.49264C80.3021 8.47504 80.3038 8.45711 80.3094 8.44027C80.315 8.42342 80.3245 8.40812 80.337 8.39556C80.3495 8.38299 80.3647 8.37351 80.3815 8.36786C80.3982 8.3622 80.4161 8.36053 80.4336 8.36296L101.02 8.3703ZM93.2528 0H95.0448L88.4708 5.70825H88.0861L93.2528 0Z" fill="#1F140F"/>
<path d="M142.796 36.3586C142.789 36.339 142.787 36.3181 142.79 36.2976C142.793 36.277 142.801 36.2575 142.813 36.2406C142.824 36.2237 142.84 36.2099 142.859 36.2004C142.877 36.1908 142.897 36.1859 142.918 36.1859C142.938 36.1859 142.959 36.1908 142.977 36.2004C142.995 36.2099 143.011 36.2237 143.023 36.2406C143.035 36.2575 143.043 36.277 143.046 36.2976C143.049 36.3181 143.046 36.339 143.04 36.3586V38.4138H123.318C123.283 38.4138 123.251 38.4002 123.226 38.3758C123.202 38.3515 123.189 38.3185 123.189 38.2841C123.189 38.2497 123.202 38.2168 123.226 38.1924C123.251 38.1681 123.283 38.1545 123.318 38.1545C123.917 38.1545 124.391 37.8486 124.749 37.232C125.102 36.6266 125.286 35.937 125.283 35.2355V10.4745C125.29 10.2236 125.243 9.97403 125.143 9.74387C125.043 9.51371 124.894 9.30865 124.706 9.14346C124.269 8.78059 123.713 8.59626 123.147 8.6272C123.13 8.63007 123.112 8.62879 123.095 8.62345C123.079 8.61812 123.063 8.60888 123.051 8.59648C123.038 8.58409 123.029 8.56889 123.023 8.55212C123.017 8.53535 123.016 8.51748 123.018 8.49997C123.016 8.48237 123.017 8.46444 123.023 8.4476C123.029 8.43075 123.038 8.41545 123.051 8.40288C123.063 8.39032 123.078 8.38084 123.095 8.37518C123.112 8.36953 123.13 8.36785 123.147 8.37029H129.775C129.792 8.36785 129.81 8.36953 129.827 8.37518C129.844 8.38084 129.859 8.39032 129.871 8.40288C129.884 8.41545 129.893 8.43075 129.899 8.4476C129.905 8.46444 129.906 8.48237 129.904 8.49997C129.906 8.51748 129.905 8.53535 129.899 8.55212C129.893 8.56889 129.884 8.58409 129.871 8.59648C129.859 8.60888 129.844 8.61812 129.827 8.62345C129.81 8.62879 129.792 8.63007 129.775 8.6272C129.209 8.59626 128.653 8.78059 128.217 9.14346C128.028 9.30865 127.879 9.51371 127.779 9.74387C127.68 9.97403 127.632 10.2236 127.639 10.4745V38.1691H139.899C140.593 38.18 141.281 38.0258 141.905 37.7189C142.173 37.6087 142.401 37.4198 142.56 37.1771C142.719 36.9344 142.801 36.6491 142.796 36.3586Z" fill="#1F140F"/>
<path d="M171.897 8.37031C171.914 8.36787 171.932 8.36955 171.949 8.3752C171.966 8.38086 171.981 8.39034 171.993 8.4029C172.006 8.41547 172.015 8.43077 172.021 8.44762C172.027 8.46446 172.028 8.48239 172.026 8.49999C172.028 8.5175 172.027 8.53537 172.021 8.55214C172.015 8.56891 172.006 8.58411 171.993 8.5965C171.981 8.6089 171.966 8.61814 171.949 8.62348C171.932 8.62881 171.914 8.63009 171.897 8.62722C171.331 8.5958 170.775 8.78019 170.339 9.14348C170.15 9.30868 170.001 9.51374 169.901 9.74389C169.802 9.97405 169.754 10.2236 169.761 10.4745V28.2011C169.732 31.1503 168.721 33.6329 166.728 35.649C164.734 37.6651 162.253 38.674 159.285 38.6756C156.038 38.6756 153.326 37.7597 151.147 35.928C148.969 34.0962 147.879 31.8639 147.877 29.2312V10.4745C147.885 10.2241 147.837 9.97513 147.738 9.74515C147.64 9.51517 147.492 9.30979 147.305 9.14348C146.868 8.78067 146.311 8.59639 145.745 8.62722C145.727 8.62967 145.71 8.62806 145.693 8.62254C145.677 8.61701 145.662 8.60771 145.65 8.59537C145.637 8.58303 145.628 8.56798 145.623 8.55143C145.617 8.53488 145.616 8.51727 145.618 8.49999C145.615 8.48252 145.616 8.46463 145.622 8.44775C145.627 8.43088 145.636 8.4155 145.649 8.40287C145.661 8.39023 145.676 8.3807 145.693 8.37505C145.709 8.36939 145.727 8.36777 145.745 8.37031H152.367C152.385 8.36777 152.402 8.36939 152.419 8.37505C152.436 8.3807 152.451 8.39023 152.463 8.40287C152.476 8.4155 152.485 8.43088 152.49 8.44775C152.495 8.46463 152.497 8.48252 152.494 8.49999C152.496 8.51727 152.495 8.53488 152.489 8.55143C152.484 8.56798 152.474 8.58303 152.462 8.59537C152.45 8.60771 152.435 8.61701 152.418 8.62254C152.402 8.62806 152.384 8.62967 152.367 8.62722C151.801 8.5959 151.244 8.78024 150.807 9.14348C150.618 9.30844 150.468 9.5134 150.368 9.74357C150.268 9.97374 150.22 10.2234 150.227 10.4745V28.7174C150.203 29.9237 150.421 31.1225 150.869 32.242C151.317 33.3615 151.984 34.3788 152.832 35.2331C153.663 36.1075 154.665 36.7984 155.776 37.2618C156.887 37.7252 158.082 37.9509 159.285 37.9245C162.13 37.9245 164.522 36.9727 166.46 35.0691C167.396 34.1795 168.138 33.1038 168.638 31.9104C169.138 30.7171 169.385 29.4322 169.365 28.1375V10.4745C169.372 10.2236 169.325 9.97405 169.225 9.74389C169.125 9.51374 168.976 9.30868 168.788 9.14348C168.351 8.78062 167.795 8.59628 167.229 8.62722C167.212 8.63009 167.194 8.62881 167.177 8.62348C167.161 8.61814 167.145 8.6089 167.133 8.5965C167.12 8.58411 167.111 8.56891 167.105 8.55214C167.099 8.53537 167.098 8.5175 167.1 8.49999C167.098 8.48239 167.099 8.46446 167.105 8.44762C167.111 8.43077 167.12 8.41547 167.133 8.4029C167.145 8.39034 167.16 8.38086 167.177 8.3752C167.194 8.36955 167.212 8.36787 167.229 8.37031H171.897Z" fill="#1F140F"/>
<path d="M182.179 38.1692C182.213 38.1692 182.246 38.1828 182.27 38.2072C182.294 38.2315 182.308 38.2645 182.308 38.2989C182.308 38.3332 182.294 38.3662 182.27 38.3906C182.246 38.4149 182.213 38.4285 182.179 38.4285H175.549C175.515 38.4285 175.482 38.4149 175.458 38.3906C175.434 38.3662 175.42 38.3332 175.42 38.2989C175.42 38.2645 175.434 38.2315 175.458 38.2072C175.482 38.1828 175.515 38.1692 175.549 38.1692C176.115 38.1997 176.672 38.0164 177.11 37.6554C177.297 37.4895 177.446 37.2843 177.546 37.0543C177.645 36.8243 177.693 36.5751 177.687 36.3243V10.4745C177.694 10.2236 177.647 9.97405 177.547 9.74389C177.447 9.51374 177.298 9.30868 177.11 9.14348C176.672 8.78067 176.115 8.59639 175.549 8.62722C175.532 8.62967 175.514 8.62806 175.498 8.62254C175.481 8.61701 175.466 8.60771 175.454 8.59537C175.442 8.58303 175.433 8.56798 175.427 8.55143C175.422 8.53488 175.42 8.51727 175.422 8.49999C175.42 8.48252 175.421 8.46463 175.426 8.44775C175.431 8.43088 175.441 8.4155 175.453 8.40287C175.465 8.39023 175.48 8.3807 175.497 8.37505C175.514 8.36939 175.532 8.36777 175.549 8.37031H182.172C182.189 8.36777 182.207 8.36939 182.224 8.37505C182.24 8.3807 182.255 8.39023 182.268 8.40287C182.28 8.4155 182.289 8.43088 182.295 8.44775C182.3 8.46463 182.301 8.48252 182.298 8.49999C182.301 8.51727 182.299 8.53488 182.294 8.55143C182.288 8.56798 182.279 8.58303 182.267 8.59537C182.254 8.60771 182.239 8.61701 182.223 8.62254C182.206 8.62806 182.189 8.62967 182.172 8.62722C181.605 8.59639 181.048 8.78067 180.611 9.14348C180.424 9.30956 180.276 9.51484 180.176 9.74483C180.077 9.97482 180.029 10.2239 180.036 10.4745V36.3145C180.029 36.5651 180.077 36.8142 180.176 37.0442C180.276 37.2742 180.424 37.4795 180.611 37.6456C181.05 38.0119 181.609 38.1989 182.179 38.1692Z" fill="#1F140F"/>
<path d="M196.018 38.7613C193.998 38.7061 192.018 38.1845 190.231 37.237C188.575 36.3706 187.181 35.0736 186.194 33.4812C185.681 32.4797 185.645 31.6429 186.087 30.9708C186.316 30.631 186.616 30.3455 186.967 30.1342C187.317 29.9229 187.709 29.791 188.115 29.7475C188.655 29.6031 188.928 29.8038 188.928 30.3469C188.729 32.8083 189.255 34.7543 190.508 36.1849C191.761 37.6154 193.612 38.3739 196.06 38.4603C199.249 38.5745 201.777 37.7589 203.642 36.0136C205.507 34.2682 205.999 32.2505 205.117 29.9603C204.744 28.9294 203.84 27.9638 202.405 27.0634C200.881 26.1204 199.281 25.3092 197.62 24.6387C195.867 23.9242 194.144 23.1584 192.451 22.3412C190.863 21.6044 189.434 20.5621 188.244 19.273C187.713 18.7145 187.299 18.0543 187.028 17.3316C186.756 16.609 186.633 15.8388 186.664 15.067C186.748 12.8927 187.794 11.1473 189.802 9.831C191.81 8.51465 194.266 7.95598 197.17 8.15498C200.02 8.315 202.724 9.46935 204.818 11.4189C205.699 12.2492 206.041 13.0428 205.843 13.7996C205.645 14.5565 205.103 15.0214 204.219 15.1943C203.763 15.3084 203.492 15.1086 203.408 14.5948C203.265 12.7353 202.639 11.2672 201.528 10.1907C200.418 9.11411 198.965 8.54891 197.17 8.49508C194.779 8.3809 192.743 8.85965 191.063 9.93132C189.383 11.003 188.472 12.4001 188.329 14.1226C188.293 14.8126 188.411 15.502 188.673 16.1407C188.935 16.7794 189.336 17.3513 189.846 17.8147C191.032 18.9184 192.426 19.772 193.946 20.3251C195.612 20.9694 197.32 21.599 199.072 22.214C200.821 22.8281 202.492 23.6494 204.048 24.6607C205.615 25.6753 206.711 26.8554 207.338 28.2011C208.589 31.0345 208.062 33.5318 205.757 35.6931C203.453 37.8543 200.206 38.8771 196.018 38.7613Z" fill="#1F140F"/>
<path d="M38.8764 51.039C38.8764 52.3913 38.4178 53.37 37.5007 53.9751C36.5836 54.5803 35.0765 54.8494 32.9793 54.7825V57.1559C32.9766 57.2398 32.9925 57.3232 33.0257 57.4002C33.059 57.4772 33.1088 57.5459 33.1717 57.6012C33.3186 57.7223 33.5054 57.7834 33.6951 57.7725C33.7219 57.7725 33.7365 57.7871 33.7365 57.8165C33.7365 57.8459 33.7219 57.8605 33.6951 57.8605H31.477C31.4654 57.8605 31.4543 57.8559 31.4461 57.8476C31.4378 57.8394 31.4332 57.8282 31.4332 57.8165C31.4332 57.8048 31.4378 57.7936 31.4461 57.7854C31.4543 57.7771 31.4654 57.7725 31.477 57.7725C31.6659 57.783 31.8519 57.7219 31.9981 57.6012C32.0609 57.5459 32.1108 57.4772 32.144 57.4002C32.1773 57.3232 32.1931 57.2398 32.1904 57.1559V48.4944C32.1932 48.4102 32.1773 48.3263 32.1441 48.2489C32.1108 48.1715 32.061 48.1025 31.9981 48.0467C31.8519 47.926 31.6659 47.8648 31.477 47.8754C31.4711 47.8762 31.4651 47.8756 31.4594 47.8737C31.4537 47.8718 31.4485 47.8685 31.4443 47.8643C31.44 47.86 31.4368 47.8548 31.4349 47.8491C31.433 47.8434 31.4324 47.8373 31.4332 47.8314C31.4332 47.8044 31.4478 47.7898 31.477 47.7898H32.9501C34.9921 47.6837 36.4903 47.8893 37.4447 48.4063C38.3992 48.9234 38.8764 49.801 38.8764 51.039ZM38.0461 51.039C38.0266 49.8499 37.6087 49.0066 36.7922 48.5091C35.9757 48.0116 34.7048 47.815 32.9793 47.9194V54.6651C34.8103 54.732 36.117 54.4653 36.8993 53.865C37.6833 53.268 38.0656 52.3236 38.0461 51.039Z" fill="#1F140F"/>
<path d="M51.5423 57.77C51.5539 57.77 51.565 57.7746 51.5732 57.7829C51.5815 57.7912 51.5861 57.8024 51.5861 57.814C51.5861 57.8257 51.5815 57.8369 51.5732 57.8452C51.565 57.8534 51.5539 57.8581 51.5423 57.8581H49.3242C49.3125 57.8581 49.3014 57.8534 49.2932 57.8452C49.2849 57.8369 49.2803 57.8257 49.2803 57.814C49.2803 57.8024 49.2849 57.7912 49.2932 57.7829C49.3014 57.7746 49.3125 57.77 49.3242 57.77C49.5138 57.7805 49.7005 57.7194 49.8476 57.5987C49.9101 57.5431 49.9596 57.4744 49.9929 57.3975C50.0261 57.3205 50.0422 57.2372 50.04 57.1534V51.0096H44.7151V57.1534C44.7129 57.2372 44.729 57.3205 44.7622 57.3975C44.7954 57.4744 44.845 57.5431 44.9074 57.5987C45.0546 57.7194 45.2413 57.7805 45.4309 57.77C45.4425 57.77 45.4537 57.7746 45.4619 57.7829C45.4701 57.7912 45.4747 57.8024 45.4747 57.814C45.4747 57.8257 45.4701 57.8369 45.4619 57.8452C45.4537 57.8534 45.4425 57.8581 45.4309 57.8581H43.2128C43.2012 57.8581 43.19 57.8534 43.1818 57.8452C43.1736 57.8369 43.169 57.8257 43.169 57.814C43.169 57.8024 43.1736 57.7912 43.1818 57.7829C43.19 57.7746 43.2012 57.77 43.2128 57.77C43.4018 57.781 43.5879 57.7199 43.7339 57.5987C43.797 57.5435 43.8472 57.475 43.8809 57.398C43.9146 57.321 43.9309 57.2375 43.9286 57.1534V48.4944C43.9309 48.41 43.9146 48.3261 43.8809 48.2487C43.8473 48.1713 43.7971 48.1023 43.7339 48.0466C43.5879 47.9255 43.4018 47.8643 43.2128 47.8754C43.2069 47.8762 43.2008 47.8756 43.1951 47.8737C43.1894 47.8717 43.1843 47.8685 43.18 47.8643C43.1758 47.86 43.1726 47.8548 43.1707 47.8491C43.1688 47.8434 43.1682 47.8373 43.169 47.8313C43.169 47.8044 43.1836 47.7897 43.2128 47.7897H45.4309C45.4601 47.7897 45.4747 47.8044 45.4747 47.8313C45.4755 47.8373 45.475 47.8434 45.473 47.8491C45.4711 47.8548 45.4679 47.86 45.4637 47.8643C45.4594 47.8685 45.4543 47.8717 45.4486 47.8737C45.4429 47.8756 45.4369 47.8762 45.4309 47.8754C45.2413 47.8649 45.0546 47.926 44.9074 48.0466C44.8451 48.1029 44.7956 48.172 44.7624 48.2493C44.7292 48.3266 44.713 48.4102 44.7151 48.4944V50.924H50.04V48.4944C50.042 48.4102 50.0259 48.3266 49.9927 48.2493C49.9595 48.172 49.91 48.1029 49.8476 48.0466C49.7005 47.926 49.5138 47.8649 49.3242 47.8754C49.3182 47.8762 49.3122 47.8756 49.3065 47.8737C49.3008 47.8717 49.2956 47.8685 49.2914 47.8643C49.2871 47.86 49.2839 47.8548 49.282 47.8491C49.2801 47.8434 49.2795 47.8373 49.2803 47.8313C49.2803 47.8044 49.2949 47.7897 49.3242 47.7897H51.5423C51.5715 47.7897 51.5861 47.8044 51.5861 47.8313C51.5869 47.8373 51.5863 47.8434 51.5844 47.8491C51.5825 47.8548 51.5793 47.86 51.575 47.8643C51.5708 47.8685 51.5656 47.8717 51.5599 47.8737C51.5542 47.8756 51.5482 47.8762 51.5423 47.8754C51.3533 47.8648 51.1674 47.9259 51.0212 48.0466C50.958 48.1023 50.9078 48.1713 50.8741 48.2487C50.8405 48.3261 50.8242 48.41 50.8264 48.4944V57.1534C50.8242 57.2375 50.8405 57.321 50.8742 57.398C50.9079 57.475 50.9581 57.5435 51.0212 57.5987C51.1674 57.7194 51.3533 57.7806 51.5423 57.77Z" fill="#1F140F"/>
<path d="M63.7917 56.5197C62.8366 57.4728 61.5452 58.0077 60.1992 58.0077C58.8531 58.0077 57.5617 57.4728 56.6066 56.5197C56.1334 56.0269 55.763 55.4441 55.5171 54.8054C55.2713 54.1668 55.1549 53.4852 55.175 52.8007C55.1542 52.1186 55.2702 51.4394 55.5162 50.8034C55.7622 50.1674 56.133 49.5877 56.6066 49.0987C57.5657 48.1533 58.8556 47.6236 60.1992 47.6236C61.5427 47.6236 62.8326 48.1533 63.7917 49.0987C64.2653 49.5877 64.6362 50.1674 64.8821 50.8034C65.1281 51.4394 65.2441 52.1186 65.2234 52.8007C65.2434 53.4852 65.1271 54.1668 64.8812 54.8054C64.6353 55.4441 64.2649 56.0269 63.7917 56.5197ZM62.4891 57.3027C63.5117 56.8427 64.1772 56.0043 64.4856 54.7874C64.7943 53.5347 64.6448 52.2123 64.0644 51.061C63.5026 49.844 62.5208 48.873 61.3009 48.328C60.0997 47.8012 58.9635 47.7873 57.8922 48.2864C56.8728 48.7562 56.2122 49.602 55.9103 50.8237C55.6121 52.0804 55.7585 53.4022 56.3242 54.5623C56.8555 55.7887 57.8288 56.7676 59.0487 57.3027C60.2629 57.8263 61.4056 57.8238 62.4769 57.2953L62.4891 57.3027Z" fill="#1F140F"/>
<path d="M75.8902 47.7897V48.4797C75.8902 48.4914 75.8856 48.5026 75.8774 48.5109C75.8692 48.5191 75.858 48.5238 75.8464 48.5238C75.8348 48.5238 75.8236 48.5191 75.8154 48.5109C75.8072 48.5026 75.8026 48.4914 75.8026 48.4797C75.8028 48.383 75.7744 48.2883 75.7211 48.2078C75.6678 48.1272 75.5919 48.0643 75.5031 48.0271C75.2931 47.9244 75.0621 47.8725 74.8286 47.8754H72.5253V57.1534C72.5226 57.2373 72.5385 57.3208 72.5717 57.3978C72.605 57.4748 72.6549 57.5434 72.7177 57.5987C72.8648 57.7194 73.0515 57.7805 73.2412 57.77C73.2528 57.77 73.2639 57.7746 73.2722 57.7829C73.2804 57.7912 73.285 57.8024 73.285 57.814C73.285 57.8257 73.2804 57.8369 73.2722 57.8452C73.2639 57.8534 73.2528 57.8581 73.2412 57.8581H71.0231C71.0114 57.8581 71.0003 57.8534 70.9921 57.8452C70.9839 57.8369 70.9792 57.8257 70.9792 57.814C70.9792 57.8024 70.9839 57.7912 70.9921 57.7829C71.0003 57.7746 71.0114 57.77 71.0231 57.77C71.212 57.7806 71.3979 57.7194 71.5441 57.5987C71.6073 57.5435 71.6575 57.475 71.6911 57.398C71.7248 57.321 71.7411 57.2375 71.7389 57.1534V47.8754H69.2773C69.0438 47.8725 68.8129 47.9244 68.6029 48.0271C68.514 48.0643 68.4381 48.1272 68.3848 48.2078C68.3315 48.2883 68.3032 48.383 68.3034 48.4797C68.3042 48.4857 68.3036 48.4918 68.3017 48.4975C68.2998 48.5032 68.2966 48.5084 68.2923 48.5126C68.2881 48.5169 68.2829 48.5201 68.2772 48.5221C68.2716 48.524 68.2655 48.5246 68.2596 48.5238C68.2304 48.5238 68.2182 48.5091 68.2182 48.4797V47.7751L68.5469 47.7897H75.8902Z" fill="#1F140F"/>
<path d="M87.6527 56.5197C86.6976 57.4728 85.4062 58.0077 84.0602 58.0077C82.7142 58.0077 81.4227 57.4728 80.4676 56.5197C79.9944 56.0269 79.624 55.4441 79.3781 54.8054C79.1323 54.1668 79.0159 53.4852 79.036 52.8007C79.0152 52.1186 79.1313 51.4394 79.3772 50.8034C79.6232 50.1674 79.994 49.5877 80.4676 49.0987C81.4267 48.1533 82.7167 47.6236 84.0602 47.6236C85.4037 47.6236 86.6936 48.1533 87.6527 49.0987C88.1256 49.5881 88.4957 50.168 88.7413 50.8039C88.9868 51.4398 89.1026 52.1189 89.082 52.8007C89.1023 53.485 88.9864 54.1665 88.7409 54.8052C88.4955 55.4438 88.1255 56.0267 87.6527 56.5197ZM86.3501 57.3027C87.3711 56.8427 88.0366 56.0043 88.3467 54.7874C88.6524 53.5343 88.5021 52.2126 87.923 51.061C87.3629 49.8437 86.3816 48.8724 85.1619 48.328C83.9591 47.8012 82.8229 47.7873 81.7532 48.2864C80.7306 48.7562 80.0691 49.602 79.7688 50.8237C79.4764 52.0822 79.6279 53.4036 80.1974 54.5623C80.7297 55.7888 81.7038 56.7677 82.9243 57.3027C84.1288 57.8263 85.2715 57.8238 86.3526 57.2953L86.3501 57.3027Z" fill="#1F140F"/>
<path d="M102.505 54.1023V54.1464C102.461 54.7727 102.274 55.3804 101.96 55.9227C101.685 56.4043 101.3 56.8134 100.837 57.1167C100.41 57.3892 99.947 57.6 99.4615 57.7431C99.0159 57.8776 98.5535 57.9477 98.0883 57.9511C96.7663 57.9967 95.4799 57.5157 94.5091 56.6127C93.5644 55.7221 93.0921 54.4987 93.0921 52.9426C93.0703 52.2447 93.1883 51.5495 93.4393 50.8984C93.6903 50.2473 94.069 49.6536 94.553 49.1526C95.0086 48.6684 95.5595 48.2848 96.1707 48.0262C96.7818 47.7675 97.4399 47.6395 98.1029 47.6503C98.7804 47.6257 99.4536 47.7672 100.064 48.0626C100.675 48.358 101.205 48.7985 101.609 49.3459C101.934 49.7684 102.043 50.0995 101.938 50.3393C101.873 50.4538 101.769 50.5408 101.646 50.5839C101.486 50.6551 101.307 50.6731 101.137 50.6353C101.071 50.6353 101.047 50.5766 101.066 50.491C101.228 49.7912 101.011 49.1656 100.414 48.6143C99.7888 48.0514 98.9706 47.7548 98.1321 47.7873C97.6491 47.7845 97.1694 47.8673 96.7151 48.032C96.2551 48.2005 95.8282 48.449 95.4538 48.766C95.0344 49.1327 94.696 49.5836 94.4604 50.0897C94.1755 50.6926 93.9936 51.3394 93.9224 52.003C93.7924 52.9728 93.8968 53.9598 94.2267 54.8804C94.5214 55.7322 95.0498 56.4829 95.7509 57.0458C96.463 57.6033 97.3482 57.8902 98.2503 57.8557C99.1524 57.8213 100.013 57.4677 100.681 56.8574C101.392 56.1919 101.791 55.2262 101.877 53.9604L101.862 53.498H99.0476V53.4124H102.505V54.1023Z" fill="#1F140F"/>
<path d="M114.922 57.6403L114.966 57.655L114.981 57.6991L114.952 57.7431C114.379 57.9535 114 57.9486 113.815 57.7284C113.63 57.5082 113.402 56.9136 113.133 55.9447L112.933 55.2401C112.774 54.6393 112.446 54.0974 111.989 53.6791C111.766 53.4857 111.499 53.351 111.212 53.287C110.924 53.2229 110.626 53.2315 110.343 53.312C109.665 53.4676 108.996 53.6596 108.339 53.887V57.1534C108.336 57.2373 108.352 57.3208 108.385 57.3978C108.418 57.4748 108.468 57.5434 108.531 57.5987C108.678 57.7194 108.865 57.7805 109.055 57.77C109.066 57.77 109.077 57.7746 109.086 57.7829C109.094 57.7912 109.098 57.8024 109.098 57.814C109.098 57.8257 109.094 57.8369 109.086 57.8452C109.077 57.8535 109.066 57.8581 109.055 57.8581H106.837C106.825 57.8581 106.814 57.8535 106.806 57.8452C106.797 57.8369 106.793 57.8257 106.793 57.814C106.793 57.8024 106.797 57.7912 106.806 57.7829C106.814 57.7746 106.825 57.77 106.837 57.77C107.025 57.7806 107.211 57.7194 107.358 57.5987C107.421 57.5435 107.471 57.475 107.505 57.398C107.538 57.321 107.555 57.2375 107.552 57.1534V48.4944C107.555 48.41 107.538 48.3261 107.505 48.2487C107.471 48.1713 107.421 48.1023 107.358 48.0467C107.211 47.926 107.025 47.8648 106.837 47.8754C106.831 47.8762 106.825 47.8756 106.819 47.8737C106.813 47.8718 106.808 47.8685 106.804 47.8643C106.8 47.86 106.796 47.8548 106.794 47.8491C106.792 47.8434 106.792 47.8373 106.793 47.8313C106.793 47.8044 106.807 47.7897 106.837 47.7897H108.31C108.538 47.7897 108.891 47.7751 109.369 47.7457C109.856 47.7163 110.255 47.6968 110.586 47.6821C110.98 47.6696 111.375 47.6835 111.767 47.7237C112.15 47.7554 112.528 47.8377 112.889 47.9684C113.204 48.0927 113.487 48.2848 113.72 48.5311C113.979 48.8015 114.156 49.1413 114.229 49.5098C114.365 49.9899 114.35 50.5007 114.186 50.972C114.022 51.4433 113.717 51.8522 113.313 52.1425C112.72 52.5411 112.067 52.8418 111.38 53.0331C112.534 53.0625 113.346 53.9311 113.815 55.6389C113.863 55.8004 113.914 55.9912 113.973 56.2065C114.031 56.4219 114.07 56.5833 114.095 56.6959C114.119 56.8084 114.151 56.9185 114.194 57.0482C114.223 57.146 114.264 57.2397 114.316 57.3271C114.359 57.3912 114.407 57.4517 114.46 57.5082C114.511 57.5663 114.578 57.6088 114.652 57.6305C114.741 57.6464 114.832 57.6497 114.922 57.6403ZM108.349 47.9194V53.7158C108.607 53.6179 109.133 53.4515 109.931 53.2117C110.565 53.0312 111.186 52.8097 111.791 52.5487C112.197 52.3737 112.564 52.1202 112.872 51.8024C113.131 51.532 113.317 51.1997 113.412 50.8371C113.507 50.4744 113.508 50.0933 113.415 49.73C113.379 49.5372 113.313 49.3513 113.218 49.1795C113.132 49.0226 113.02 48.8812 112.887 48.7611C112.751 48.6404 112.602 48.5346 112.444 48.4455C112.274 48.3491 112.095 48.272 111.908 48.2155C111.716 48.1592 111.516 48.1078 111.307 48.0638C111.094 48.0213 110.878 47.9903 110.662 47.9708C110.442 47.9512 110.218 47.9366 109.99 47.9268C109.761 47.9268 109.534 47.9145 109.31 47.9145H108.336L108.349 47.9194Z" fill="#1F140F"/>
<path d="M128.647 57.77C128.674 57.77 128.689 57.7847 128.689 57.814C128.689 57.8434 128.674 57.8581 128.647 57.8581H126.028C126.016 57.8581 126.005 57.8534 125.997 57.8452C125.988 57.8369 125.984 57.8257 125.984 57.814C125.984 57.8024 125.988 57.7912 125.997 57.7829C126.005 57.7746 126.016 57.77 126.028 57.77C126.209 57.7804 126.391 57.7459 126.556 57.6697C126.615 57.6406 126.662 57.5915 126.688 57.531C126.714 57.4705 126.718 57.4026 126.7 57.3394L125.526 54.3764H121.143L120.036 57.2953C120.007 57.3582 120.003 57.4292 120.022 57.4953C120.042 57.5614 120.085 57.6181 120.143 57.655C120.302 57.7422 120.483 57.7821 120.664 57.77C120.675 57.77 120.687 57.7746 120.695 57.7829C120.703 57.7912 120.708 57.8024 120.708 57.814C120.708 57.8257 120.703 57.8369 120.695 57.8452C120.687 57.8534 120.675 57.8581 120.664 57.8581H118.748C118.736 57.8581 118.725 57.8534 118.717 57.8452C118.708 57.8369 118.704 57.8257 118.704 57.814C118.704 57.8024 118.708 57.7912 118.717 57.7829C118.725 57.7746 118.736 57.77 118.748 57.77C119.329 57.77 119.7 57.6134 119.863 57.2953L123.25 48.4455C123.125 48.0613 122.901 47.8705 122.578 47.8705C122.572 47.8713 122.566 47.8707 122.56 47.8688C122.554 47.8669 122.549 47.8636 122.545 47.8594C122.54 47.8551 122.537 47.8499 122.535 47.8442C122.533 47.8385 122.533 47.8324 122.534 47.8264C122.534 47.7995 122.548 47.7849 122.578 47.7849H123.81L127.515 57.2342C127.688 57.5938 128.07 57.77 128.647 57.77ZM123.323 48.7391L121.19 54.2907H125.497L123.323 48.7391Z" fill="#1F140F"/>
<path d="M140.14 51.039C140.14 52.3913 139.682 53.37 138.766 53.9751C137.851 54.5803 136.343 54.8494 134.243 54.7825V57.1559C134.24 57.2397 134.257 57.323 134.29 57.3999C134.323 57.4769 134.373 57.5455 134.435 57.6012C134.582 57.7218 134.769 57.7829 134.958 57.7725C134.97 57.7725 134.981 57.7771 134.989 57.7854C134.998 57.7936 135.002 57.8048 135.002 57.8165C135.002 57.8282 134.998 57.8394 134.989 57.8476C134.981 57.8559 134.97 57.8605 134.958 57.8605H132.74C132.729 57.8605 132.718 57.8559 132.709 57.8476C132.701 57.8394 132.697 57.8282 132.697 57.8165C132.697 57.8048 132.701 57.7936 132.709 57.7854C132.718 57.7771 132.729 57.7725 132.74 57.7725C132.929 57.7835 133.115 57.7223 133.261 57.6012C133.325 57.546 133.375 57.4774 133.408 57.4005C133.442 57.3235 133.458 57.2399 133.456 57.1559V48.4944C133.458 48.41 133.442 48.3261 133.408 48.2487C133.375 48.1713 133.325 48.1023 133.261 48.0467C133.115 47.9255 132.929 47.8644 132.74 47.8754C132.734 47.8762 132.728 47.8756 132.723 47.8737C132.717 47.8718 132.712 47.8685 132.708 47.8643C132.703 47.86 132.7 47.8548 132.698 47.8491C132.696 47.8434 132.696 47.8373 132.697 47.8314C132.697 47.8044 132.711 47.7898 132.74 47.7898H134.213C136.257 47.6837 137.755 47.8893 138.708 48.4063C139.661 48.9234 140.138 49.801 140.14 51.039ZM139.309 51.039C139.29 49.8499 138.873 49.0066 138.058 48.5091C137.243 48.0116 135.971 47.815 134.243 47.9194V54.6651C136.075 54.732 137.383 54.4653 138.165 53.865C138.947 53.268 139.329 52.3236 139.309 51.039Z" fill="#1F140F"/>
<path d="M152.806 57.77C152.817 57.77 152.828 57.7746 152.837 57.7829C152.845 57.7912 152.849 57.8024 152.849 57.814C152.849 57.8257 152.845 57.8369 152.837 57.8452C152.828 57.8534 152.817 57.8581 152.806 57.8581H150.587C150.561 57.8581 150.546 57.8434 150.546 57.814C150.546 57.7847 150.561 57.77 150.587 57.77C150.777 57.7804 150.964 57.7194 151.111 57.5987C151.174 57.5434 151.224 57.4748 151.257 57.3978C151.29 57.3208 151.306 57.2373 151.303 57.1534V51.0097H145.978V57.1534C145.976 57.2375 145.992 57.321 146.026 57.398C146.06 57.475 146.11 57.5435 146.173 57.5987C146.319 57.7194 146.505 57.7805 146.694 57.77C146.706 57.77 146.717 57.7746 146.725 57.7829C146.733 57.7912 146.738 57.8024 146.738 57.814C146.738 57.8257 146.733 57.8369 146.725 57.8452C146.717 57.8534 146.706 57.8581 146.694 57.8581H144.476C144.447 57.8581 144.435 57.8434 144.435 57.814C144.435 57.7847 144.435 57.77 144.476 57.77C144.666 57.7804 144.852 57.7194 145 57.5987C145.062 57.5434 145.112 57.4748 145.146 57.3978C145.179 57.3208 145.195 57.2373 145.192 57.1534V48.4944C145.195 48.4101 145.179 48.3263 145.146 48.2489C145.112 48.1715 145.062 48.1025 145 48.0467C144.852 47.926 144.666 47.8649 144.476 47.8754C144.447 47.8754 144.435 47.8607 144.435 47.8313C144.434 47.8257 144.434 47.8199 144.436 47.8145C144.438 47.8091 144.441 47.8042 144.445 47.8001C144.449 47.7961 144.454 47.793 144.459 47.7912C144.465 47.7894 144.47 47.7889 144.476 47.7897H146.694C146.723 47.7897 146.738 47.8044 146.738 47.8313C146.739 47.8373 146.738 47.8434 146.736 47.8491C146.734 47.8548 146.731 47.86 146.727 47.8643C146.723 47.8685 146.718 47.8718 146.712 47.8737C146.706 47.8756 146.7 47.8762 146.694 47.8754C146.505 47.8648 146.319 47.926 146.173 48.0467C146.11 48.1023 146.06 48.1713 146.026 48.2487C145.992 48.3261 145.976 48.41 145.978 48.4944V50.924H151.303V48.4944C151.306 48.4101 151.29 48.3263 151.257 48.2489C151.224 48.1715 151.174 48.1025 151.111 48.0467C150.964 47.926 150.777 47.8649 150.587 47.8754C150.561 47.8754 150.546 47.8607 150.546 47.8313C150.545 47.8257 150.546 47.8199 150.548 47.8145C150.549 47.8091 150.552 47.8042 150.556 47.8001C150.56 47.7961 150.565 47.793 150.571 47.7912C150.576 47.7894 150.582 47.7889 150.587 47.7897H152.806C152.835 47.7897 152.849 47.8044 152.849 47.8313C152.85 47.8373 152.85 47.8434 152.848 47.8491C152.846 47.8548 152.843 47.86 152.838 47.8643C152.834 47.8685 152.829 47.8718 152.823 47.8737C152.818 47.8756 152.812 47.8762 152.806 47.8754C152.617 47.8648 152.431 47.926 152.285 48.0467C152.222 48.1025 152.172 48.1715 152.139 48.2489C152.105 48.3263 152.089 48.4101 152.092 48.4944V57.1534C152.089 57.2373 152.105 57.3208 152.139 57.3978C152.172 57.4748 152.222 57.5434 152.285 57.5987C152.431 57.7194 152.617 57.7805 152.806 57.77Z" fill="#1F140F"/>
<path d="M164.086 47.7897V48.4797C164.086 48.4914 164.081 48.5026 164.073 48.5109C164.065 48.5191 164.054 48.5238 164.042 48.5238C164.031 48.5238 164.019 48.5191 164.011 48.5109C164.003 48.5026 163.998 48.4914 163.998 48.4797C163.999 48.383 163.97 48.2883 163.917 48.2078C163.864 48.1272 163.788 48.0643 163.699 48.0271C163.49 47.9242 163.26 47.8722 163.027 47.8754H158.632V51.959H160.879C161.112 51.963 161.342 51.9118 161.551 51.8097C161.641 51.7729 161.717 51.7101 161.771 51.6296C161.825 51.549 161.853 51.4541 161.853 51.3571C161.853 51.3277 161.868 51.3131 161.895 51.3131C161.901 51.3122 161.907 51.3128 161.912 51.3148C161.918 51.3167 161.923 51.3199 161.927 51.3242C161.932 51.3284 161.935 51.3336 161.937 51.3393C161.939 51.345 161.939 51.3511 161.938 51.3571V52.6514C161.938 52.6783 161.924 52.693 161.895 52.693C161.889 52.6938 161.883 52.6933 161.878 52.6915C161.873 52.6897 161.868 52.6867 161.864 52.6826C161.86 52.6786 161.857 52.6737 161.855 52.6683C161.853 52.6628 161.852 52.6571 161.853 52.6514C161.854 52.554 161.825 52.4586 161.771 52.3775C161.718 52.2964 161.641 52.2334 161.551 52.1963C161.342 52.0942 161.112 52.0431 160.879 52.0471H158.632V57.77H163.027C163.259 57.774 163.49 57.7229 163.699 57.6207C163.788 57.5835 163.864 57.5206 163.917 57.44C163.97 57.3595 163.999 57.2648 163.998 57.1681C163.998 57.1564 164.003 57.1452 164.011 57.137C164.019 57.1287 164.031 57.1241 164.042 57.1241C164.054 57.1241 164.065 57.1287 164.073 57.137C164.081 57.1452 164.086 57.1564 164.086 57.1681V57.8581H157.186C157.157 57.8581 157.144 57.8434 157.144 57.814C157.144 57.7847 157.157 57.77 157.186 57.77C157.288 57.7702 157.387 57.7413 157.474 57.6868C157.56 57.6322 157.629 57.5541 157.673 57.4617C157.792 57.2594 157.854 57.0286 157.853 56.7937V48.8541C157.853 48.6184 157.791 48.387 157.673 48.1837C157.629 48.0912 157.56 48.0132 157.474 47.9586C157.387 47.904 157.288 47.8752 157.186 47.8754C157.157 47.8754 157.144 47.8607 157.144 47.8313C157.144 47.8257 157.144 47.8199 157.146 47.8145C157.148 47.8091 157.151 47.8042 157.155 47.8001C157.159 47.7961 157.164 47.793 157.169 47.7912C157.174 47.7894 157.18 47.7889 157.186 47.7897H164.086Z" fill="#1F140F"/>
<path d="M176.508 57.6403L176.552 57.655L176.567 57.6991L176.537 57.7431C175.966 57.9535 175.587 57.9486 175.4 57.7284C175.214 57.5082 174.987 56.9136 174.719 55.9447L174.519 55.2401C174.36 54.6393 174.032 54.0974 173.574 53.6791C173.352 53.4857 173.085 53.351 172.797 53.287C172.51 53.2229 172.212 53.2315 171.928 53.312C171.251 53.4676 170.582 53.6596 169.925 53.887V57.1534C169.922 57.2373 169.938 57.3208 169.971 57.3978C170.004 57.4748 170.054 57.5434 170.117 57.5987C170.264 57.7194 170.451 57.7805 170.64 57.77C170.652 57.77 170.663 57.7746 170.671 57.7829C170.68 57.7912 170.684 57.8024 170.684 57.814C170.684 57.8257 170.68 57.8369 170.671 57.8452C170.663 57.8535 170.652 57.8581 170.64 57.8581H168.422C168.411 57.8581 168.4 57.8535 168.391 57.8452C168.383 57.8369 168.378 57.8257 168.378 57.814C168.378 57.8024 168.383 57.7912 168.391 57.7829C168.4 57.7746 168.411 57.77 168.422 57.77C168.611 57.7806 168.797 57.7194 168.943 57.5987C169.007 57.5435 169.057 57.475 169.09 57.398C169.124 57.321 169.14 57.2375 169.138 57.1534V48.4944C169.14 48.41 169.124 48.3261 169.09 48.2487C169.057 48.1713 169.007 48.1023 168.943 48.0467C168.797 47.926 168.611 47.8648 168.422 47.8754C168.416 47.8762 168.41 47.8756 168.405 47.8737C168.399 47.8718 168.394 47.8685 168.39 47.8643C168.385 47.86 168.382 47.8548 168.38 47.8491C168.378 47.8434 168.378 47.8373 168.378 47.8313C168.378 47.8044 168.393 47.7897 168.422 47.7897H169.883C170.112 47.7897 170.465 47.7751 170.942 47.7457C171.429 47.7163 171.829 47.6968 172.16 47.6821C172.554 47.6696 172.948 47.6835 173.341 47.7237C173.724 47.7554 174.101 47.8377 174.463 47.9684C174.777 48.0927 175.061 48.2848 175.293 48.5311C175.553 48.8015 175.73 49.1413 175.802 49.5098C175.939 49.9899 175.924 50.5008 175.76 50.9722C175.596 51.4436 175.291 51.8524 174.887 52.1425C174.294 52.5411 173.641 52.8418 172.953 53.0331C174.108 53.0625 174.923 53.9311 175.4 55.6389C175.449 55.8004 175.503 55.9912 175.559 56.2065C175.615 56.4219 175.656 56.5833 175.68 56.6959C175.705 56.8084 175.739 56.9185 175.78 57.0482C175.809 57.146 175.85 57.2397 175.902 57.3271C175.945 57.3912 175.993 57.4517 176.046 57.5082C176.097 57.5659 176.164 57.6082 176.238 57.6305C176.327 57.6464 176.418 57.6497 176.508 57.6403ZM169.934 47.9194V53.7158C170.192 53.6179 170.718 53.4515 171.517 53.2117C172.151 53.0312 172.772 52.8097 173.377 52.5487C173.783 52.3737 174.15 52.1202 174.458 51.8024C174.717 51.532 174.902 51.1997 174.997 50.8371C175.092 50.4744 175.094 50.0933 175.001 49.73C174.966 49.5391 174.901 49.355 174.809 49.1844C174.722 49.0275 174.61 48.8861 174.478 48.766C174.342 48.6448 174.193 48.5389 174.035 48.4504C173.865 48.354 173.685 48.2769 173.499 48.2204C173.307 48.1641 173.107 48.1127 172.897 48.0687C172.684 48.0262 172.469 47.9952 172.252 47.9757C172.033 47.9561 171.809 47.9414 171.58 47.9317C171.351 47.9317 171.125 47.9194 170.901 47.9194H169.927H169.934Z" fill="#1F140F"/>
</svg>
