<svg width="50" height="179" viewBox="0 0 50 179" fill="none" xmlns="http://www.w3.org/2000/svg">
<path d="M48.58 124.969C48.58 124.829 48.65 124.759 48.79 124.759C48.93 124.759 49 124.829 49 124.969L49 135.819C49 135.959 48.93 136.029 48.79 136.029C48.65 136.029 48.58 135.959 48.58 135.819C48.58 134.745 48.3 133.905 47.74 133.299C47.18 132.645 46.4567 132.319 45.57 132.319L1.89 132.319L45.92 151.709L49 152.619L2.1 174.389L45.57 174.389C46.4567 174.389 47.18 174.085 47.74 173.479C48.3 172.825 48.58 171.962 48.58 170.889C48.58 170.749 48.65 170.679 48.79 170.679C48.93 170.679 49 170.749 49 170.889L49 178.519C49 178.659 48.93 178.729 48.79 178.729C48.65 178.729 48.58 178.659 48.58 178.519C48.58 177.445 48.3 176.605 47.74 175.999C47.18 175.345 46.4567 175.019 45.57 175.019L2.87 175.019C2.07666 175.019 1.47 175.299 1.05 175.859C0.629998 176.419 0.419999 176.955 0.419999 177.469C0.419999 177.655 0.349999 177.772 0.209998 177.819C0.0699969 177.819 -3.57047e-06 177.679 -3.58271e-06 177.399L-3.67144e-06 175.369L-3.71428e-06 174.389L-3.82443e-06 171.869L43.47 151.219L-5.55322e-06 132.319L-5.58994e-06 131.479L-5.82554e-06 126.089C-5.83778e-06 125.809 0.0699946 125.692 0.209996 125.739C0.349997 125.739 0.419997 125.832 0.419997 126.019C0.419997 126.532 0.629996 127.069 1.04999 127.629C1.46999 128.189 2.07666 128.469 2.86999 128.469L45.57 128.469C46.4567 128.469 47.18 128.165 47.74 127.559C48.3 126.905 48.58 126.042 48.58 124.969ZM27.86 114.182C29.82 114.322 31.85 114.252 33.95 113.972C39.4567 113.272 43.5633 110.869 46.27 106.762C48.93 102.609 49.35 98.5019 47.53 94.4419C46.41 91.7353 44.52 89.7053 41.86 88.3519C41.2533 88.0719 40.88 87.8619 40.74 87.7219C40.5533 87.5353 40.4833 87.3486 40.53 87.1619C40.7167 86.6953 41.2067 86.7186 42 87.2319C47.5067 90.7319 50.1433 95.6553 49.91 102.002C49.7233 106.855 47.9267 110.822 44.52 113.902C41.0667 116.935 36.6567 118.452 31.29 118.452C25.8767 118.452 21.5367 116.842 18.27 113.622C15.0033 110.355 13.37 106.225 13.37 101.232C13.37 97.7786 14.56 94.5353 16.94 91.502C19.2733 88.4219 22.68 86.6019 27.16 86.0419C27.2533 86.0419 27.3467 86.0653 27.44 86.1119C27.5333 86.1119 27.6033 86.1586 27.65 86.252C27.6967 86.2986 27.7433 86.3686 27.79 86.462C27.79 86.5086 27.8133 86.5786 27.86 86.6719C27.86 86.7653 27.86 86.8586 27.86 86.952L27.86 114.182ZM14 101.862C14 105.455 15.2367 108.325 17.71 110.472C20.1833 112.572 23.4267 113.809 27.44 114.182L27.44 89.542C23.1 89.9153 19.7867 91.1986 17.5 93.3919C15.1667 95.5853 14 98.4086 14 101.862ZM47.95 43.0641L48.02 42.8541L48.23 42.7841L48.44 42.9241C50.4 48.3375 48.1833 51.0441 41.79 51.0441L25.55 51.0441C24.3833 51.0441 23.2167 51.1841 22.05 51.4641C20.8367 51.6975 19.5533 52.1641 18.2 52.8641C16.8 53.5175 15.7033 54.6141 14.91 56.1541C14.07 57.6475 13.72 59.4908 13.86 61.6841C14 63.9241 15.19 66.3508 17.43 68.9641C19.67 71.5775 21.8167 72.8841 23.87 72.8841L45.57 72.8841C46.4567 72.8841 47.18 72.5808 47.74 71.9741C48.3 71.3208 48.58 70.4575 48.58 69.3841C48.58 69.2441 48.65 69.1741 48.79 69.1741C48.93 69.1741 49 69.2441 49 69.3841L49 80.2341C49 80.3741 48.93 80.4441 48.79 80.4441C48.65 80.4441 48.58 80.3741 48.58 80.2341C48.58 79.1608 48.3 78.3208 47.74 77.7141C47.18 77.0608 46.4567 76.7341 45.57 76.7341L18.62 76.7341C17.8267 76.7341 17.22 76.9908 16.8 77.5041C16.38 78.0175 16.1467 78.5775 16.1 79.1841C16.1 79.3708 16.0533 79.4875 15.96 79.5341C15.82 79.5341 15.7267 79.3941 15.68 79.1141C15.4467 76.7808 14.6533 74.7041 13.3 72.8841L18.55 72.8841C17.0567 71.3908 15.8433 69.6408 14.91 67.6341C13.9767 65.6275 13.44 63.6441 13.3 61.6841C12.9733 56.7375 14 53.0975 16.38 50.7641C18.76 48.3841 21.5367 47.1941 24.71 47.1941L38.64 47.1941C42.28 47.1941 44.7533 46.9375 46.06 46.4241C47.32 45.8641 47.95 44.7441 47.95 43.0641ZM-1.06056e-05 16.7327L-1.07341e-05 13.7927L9.30999 24.5727L9.30999 25.2027L-1.06056e-05 16.7327ZM47.95 0.772653L48.02 0.562652L48.23 0.492652L48.44 0.632651C50.3067 5.62599 48.6033 8.30932 43.33 8.68265C44.87 10.2227 46.1533 12.0193 47.18 14.0727C48.2067 16.0793 48.79 18.0393 48.93 19.9527C49.2567 24.8993 48.23 28.5627 45.85 30.9427C43.47 33.276 40.6933 34.4427 37.52 34.4427L21.42 34.4427C20.6267 34.4427 20.0433 34.7227 19.67 35.2827C19.25 35.8427 19.04 36.3793 19.04 36.8927C19.04 37.0793 18.9933 37.196 18.9 37.2427C18.76 37.2427 18.6667 37.1027 18.62 36.8227C18.4333 35.1893 16.8933 33.1127 14 30.5927L36.68 30.5927C37.8467 30.5927 39.0367 30.476 40.25 30.2427C41.4167 29.9627 42.7 29.496 44.1 28.8427C45.4533 28.1427 46.55 27.046 47.39 25.5527C48.1833 24.0127 48.51 22.146 48.37 19.9527C48.23 17.7127 47.04 15.286 44.8 12.6727C42.56 10.0593 40.4133 8.75265 38.36 8.75265L21.42 8.75265C20.6267 8.75265 20.0433 9.03265 19.67 9.59265C19.25 10.1527 19.04 10.6893 19.04 11.2027C19.04 11.3893 18.9933 11.506 18.9 11.5527C18.76 11.5527 18.6667 11.4127 18.62 11.1327C18.4333 9.49932 16.8933 7.42265 14 4.90265L38.64 4.90265C42.28 4.90265 44.7533 4.64598 46.06 4.13265C47.32 3.57265 47.95 2.45265 47.95 0.772653Z" fill="white"/>
</svg>
