<svg width="1241" height="233" viewBox="0 0 1241 233" fill="none" xmlns="http://www.w3.org/2000/svg">
<path d="M123.512 86.8C123.512 115 113.912 135.4 94.7117 148C75.5117 160.6 43.9117 166.2 -0.0882791 164.8V214.3C-0.0882791 218.1 1.21172 221.2 3.81172 223.6C6.61172 226 10.3117 227.2 14.9117 227.2C15.5117 227.2 15.8117 227.5 15.8117 228.1C15.8117 228.7 15.5117 229 14.9117 229H-31.5883C-32.1883 229 -32.4883 228.7 -32.4883 228.1C-32.4883 227.5 -32.1883 227.2 -31.5883 227.2C-26.9883 227.2 -23.3883 226 -20.7883 223.6C-17.9883 221.2 -16.5883 218.1 -16.5883 214.3V33.7C-16.5883 29.9 -17.9883 26.8 -20.7883 24.4C-23.3883 22 -26.9883 20.8 -31.5883 20.8C-32.1883 20.8 -32.4883 20.5 -32.4883 19.9C-32.4883 19.3 -32.1883 19 -31.5883 19H-0.68828C42.1117 16.8 73.5117 21.1 93.5117 31.9C113.512 42.7 123.512 61 123.512 86.8ZM106.112 86.8C105.712 62 96.9117 44.4 79.7117 34C62.7117 23.6 36.1117 19.5 -0.0882791 21.7V162.4C38.3117 163.8 65.7117 158.3 82.1117 145.9C98.5117 133.3 106.512 113.6 106.112 86.8ZM269.865 210.4C255.665 225.4 237.865 232.9 216.465 232.9C195.065 232.9 177.165 225.4 162.765 210.4C148.565 195.4 141.465 176.7 141.465 154.3C141.465 131.9 148.565 113.3 162.765 98.5C177.165 83.7 195.065 76.3 216.465 76.3C237.865 76.3 255.665 83.7 269.865 98.5C284.265 113.3 291.465 131.9 291.465 154.3C291.465 176.7 284.265 195.4 269.865 210.4ZM249.465 221.5C264.665 214.5 274.365 202.3 278.565 184.9C282.965 167.5 280.765 149.3 271.965 130.3C262.365 110.5 249.165 96.5 232.365 88.3C215.565 80.1 199.265 79.7 183.465 87.1C168.265 94.1 158.465 106.4 154.065 124C149.865 141.4 152.165 159.7 160.965 178.9C170.165 198.9 183.165 213 199.965 221.2C216.765 229.2 233.265 229.3 249.465 221.5ZM415.988 76.9C421.388 79.3 424.088 82.2 424.088 85.6C424.288 89 422.588 91.7 418.988 93.7C418.588 94.1 418.188 94.4 417.788 94.6C417.588 94.6 417.288 94.6 416.888 94.6C416.488 94.4 416.188 94.3 415.988 94.3C415.988 94.1 415.688 93.8 415.088 93.4C414.688 92.8 414.288 92.3 413.888 91.9C408.488 87.5 401.888 85 394.088 84.4C386.488 83.6 379.288 84.4 372.488 86.8C365.688 89.2 359.888 93.1 355.088 98.5C350.288 103.9 347.888 109.9 347.888 116.5V214.3C347.888 218.1 349.188 221.2 351.788 223.6C354.588 226 358.288 227.2 362.888 227.2C363.488 227.2 363.788 227.5 363.788 228.1C363.788 228.7 363.488 229 362.888 229H316.388C315.788 229 315.488 228.7 315.488 228.1C315.488 227.5 315.788 227.2 316.388 227.2C320.988 227.2 324.588 226 327.188 223.6C329.988 221.2 331.388 218.1 331.388 214.3V107.8C331.388 104.4 330.188 101.9 327.788 100.3C325.388 98.5 323.088 97.6 320.888 97.6C320.088 97.6 319.588 97.4 319.388 97C319.388 96.4 319.988 96 321.188 95.8C328.188 95 337.088 88.4 347.888 76V103.3C356.288 91.5 367.588 83.2 381.788 78.4C395.988 73.6 407.388 73.1 415.988 76.9ZM524.844 225.4H525.744L526.044 226.3L525.444 227.2C514.244 232.6 504.144 232.5 495.144 226.9C486.144 221.1 481.644 211.5 481.644 198.1V91.3C481.644 87.9 480.444 85.3 478.044 83.5C475.644 81.7 473.344 80.8 471.144 80.8H439.344V79H471.444C475.244 78.6 479.244 75.9 483.444 70.9C487.644 65.9 492.544 59.1 498.144 50.5V79H518.844V80.8H498.144V193C498.144 203.4 500.144 211.6 504.144 217.6C508.144 223.6 515.044 226.2 524.844 225.4ZM679.604 224.5L680.504 224.8L680.804 225.7L680.204 226.6C669.004 230.6 660.604 230.7 655.004 226.9C649.404 222.9 646.204 215 645.404 203.2C640.204 212.2 632.304 219.1 621.704 223.9C611.304 228.7 600.804 231.1 590.204 231.1C579.804 231.1 570.204 228.3 561.404 222.7C552.604 217.1 547.104 209.2 544.904 199C542.904 188.8 544.504 178.5 549.704 168.1C554.904 157.7 564.604 149.5 578.804 143.5C597.204 135.7 619.404 131.8 645.404 131.8V117.4C645.404 105.4 641.704 96 634.304 89.2C626.904 82.4 616.604 79 603.404 79C594.004 79 586.404 81.6 580.604 86.8C575.004 92 571.704 99.5 570.704 109.3C570.304 112.1 568.904 113.2 566.504 112.6C561.904 111.6 558.704 109.3 556.904 105.7C555.304 102.1 556.604 98 560.804 93.4C573.204 82.2 587.404 76.6 603.404 76.6C621.804 76.6 636.104 81.2 646.304 90.4C656.704 99.4 661.904 112 661.904 128.2V184.6C661.904 200.2 663.004 210.8 665.204 216.4C667.604 221.8 672.404 224.5 679.604 224.5ZM645.404 198.4V198.1V134.5C631.204 134.5 620.304 135.5 612.704 137.5C605.304 139.3 597.404 142.4 589.004 146.8C566.004 159 555.904 175.1 558.704 195.1C559.904 203.5 564.104 210.2 571.304 215.2C578.504 220 586.604 222.6 595.604 223C604.604 223.2 613.804 221.2 623.204 217C632.604 212.8 640.004 206.6 645.404 198.4ZM811.044 18.4C814.044 24 814.944 28.4 813.744 31.6C812.544 34.6 809.744 36.6 805.344 37.6C803.944 38 802.844 37.9 802.044 37.3C801.244 36.7 800.944 35.7 801.144 34.3C801.544 26.9 799.044 19.9 793.644 13.3C788.244 6.69999 781.444 3.49999 773.244 3.69999C763.044 4.09999 754.944 8.5 748.944 16.9C743.144 25.1 740.244 36.8 740.244 52V79H778.344V80.8H740.244V214.3C740.244 218.1 741.544 221.2 744.144 223.6C746.944 226 750.644 227.2 755.244 227.2C755.844 227.2 756.144 227.5 756.144 228.1C756.144 228.7 755.844 229 755.244 229H708.744C708.144 229 707.844 228.7 707.844 228.1C707.844 227.5 708.144 227.2 708.744 227.2C713.344 227.2 716.944 226 719.544 223.6C722.344 221.2 723.744 218.1 723.744 214.3V80.8H704.844V79H723.744V62.8C723.744 42 728.444 26.6 737.844 16.6C747.244 6.6 759.044 1.6 773.244 1.6C782.044 1.6 789.844 3.4 796.644 7C803.644 10.6 808.444 14.4 811.044 18.4ZM921.72 210.4C907.52 225.4 889.72 232.9 868.32 232.9C846.92 232.9 829.02 225.4 814.62 210.4C800.42 195.4 793.32 176.7 793.32 154.3C793.32 131.9 800.42 113.3 814.62 98.5C829.02 83.7 846.92 76.3 868.32 76.3C889.72 76.3 907.52 83.7 921.72 98.5C936.12 113.3 943.32 131.9 943.32 154.3C943.32 176.7 936.12 195.4 921.72 210.4ZM901.32 221.5C916.52 214.5 926.22 202.3 930.42 184.9C934.82 167.5 932.62 149.3 923.82 130.3C914.22 110.5 901.02 96.5 884.22 88.3C867.42 80.1 851.12 79.7 835.32 87.1C820.12 94.1 810.32 106.4 805.92 124C801.72 141.4 804.02 159.7 812.82 178.9C822.02 198.9 835.02 213 851.82 221.2C868.62 229.2 885.12 229.3 901.32 221.5ZM1005.66 227.2C1006.26 227.2 1006.56 227.5 1006.56 228.1C1006.56 228.7 1006.26 229 1005.66 229H959.162C958.562 229 958.262 228.7 958.262 228.1C958.262 227.5 958.562 227.2 959.162 227.2C963.762 227.2 967.362 226 969.962 223.6C972.762 221.2 974.162 218.1 974.162 214.3V31.9C974.162 28.5 972.962 26 970.562 24.4C968.162 22.6 965.862 21.7 963.662 21.7C962.862 21.7 962.362 21.5 962.162 21.1C962.162 20.5 962.762 20.1 963.962 19.9C970.962 19.1 979.862 12.5 990.662 0.0999966V214.3C990.662 218.1 991.962 221.2 994.562 223.6C997.362 226 1001.06 227.2 1005.66 227.2ZM1049.6 38.5C1046.6 38.5 1044 37.4 1041.8 35.2C1039.8 33 1038.8 30.4 1038.8 27.4C1038.8 24.2 1039.8 21.6 1041.8 19.6C1044 17.4 1046.6 16.3 1049.6 16.3C1052.8 16.3 1055.4 17.4 1057.4 19.6C1059.6 21.6 1060.7 24.2 1060.7 27.4C1060.7 30.4 1059.6 33 1057.4 35.2C1055.4 37.4 1052.8 38.5 1049.6 38.5ZM1075.1 227.2C1075.7 227.2 1076 227.5 1076 228.1C1076 228.7 1075.7 229 1075.1 229H1028.6C1028 229 1027.7 228.7 1027.7 228.1C1027.7 227.5 1028 227.2 1028.6 227.2C1033.2 227.2 1036.8 226 1039.4 223.6C1042.2 221.2 1043.6 218.1 1043.6 214.3V104.8C1043.6 101.4 1042.4 98.9 1040 97.3C1037.6 95.5 1035.3 94.6 1033.1 94.6C1032.3 94.6 1031.8 94.4 1031.6 94C1031.6 93.4 1032.2 93 1033.4 92.8C1040.4 92 1049.3 85.4 1060.1 73V214.3C1060.1 218.1 1061.4 221.2 1064 223.6C1066.8 226 1070.5 227.2 1075.1 227.2ZM1219.38 210.4C1205.18 225.4 1187.38 232.9 1165.98 232.9C1144.58 232.9 1126.68 225.4 1112.28 210.4C1098.08 195.4 1090.98 176.7 1090.98 154.3C1090.98 131.9 1098.08 113.3 1112.28 98.5C1126.68 83.7 1144.58 76.3 1165.98 76.3C1187.38 76.3 1205.18 83.7 1219.38 98.5C1233.78 113.3 1240.98 131.9 1240.98 154.3C1240.98 176.7 1233.78 195.4 1219.38 210.4ZM1198.98 221.5C1214.18 214.5 1223.88 202.3 1228.08 184.9C1232.48 167.5 1230.28 149.3 1221.48 130.3C1211.88 110.5 1198.68 96.5 1181.88 88.3C1165.08 80.1 1148.78 79.7 1132.98 87.1C1117.78 94.1 1107.98 106.4 1103.58 124C1099.38 141.4 1101.68 159.7 1110.48 178.9C1119.68 198.9 1132.68 213 1149.48 221.2C1166.28 229.2 1182.78 229.3 1198.98 221.5Z" fill="black"/>
</svg>
